<svg id="nyt-logo" xmlns="http://www.w3.org/2000/svg" viewBox="0 0 600 260">
						<title id="catTitle">Nefis Yemek Tarifleri Logo</title>
						<defs><style>.cls-1{fill:#ffa12b;}.cls-2{fill:#e02828;}</style></defs><path class="cls-1" d="M179.58,248a33.5,33.5,0,0,1-2.39,5,17.32,17.32,0,0,1-2.43,3.28,9.06,9.06,0,0,1-2.64,1.88,10.64,10.64,0,0,1-2.71.88,18.09,18.09,0,0,1-2.94.21,34.07,34.07,0,0,1-5.82-.42V250.9a22.94,22.94,0,0,0,4.11.36,4.14,4.14,0,0,0,2.7-.85,7,7,0,0,0,1.86-3l.48-1.23L157.14,214.6h10.68l4.32,12.57q.6,1.77,1.23,4.08t1,3.72l.33,1.44h.24q1.23-5.19,2.58-9.24l4.29-12.57h10.59Z"></path><path class="cls-1" d="M225.15,240.94a12,12,0,0,1-2.74,3.45,13.29,13.29,0,0,1-4.94,2.6,24,24,0,0,1-7.14,1q-8,0-12.48-4.57t-4.53-12.47q0-8,4.42-12.56T210,213.79q7.68,0,12.17,4.47T226.68,231q0,1.26-.06,1.86H203.34a8.9,8.9,0,0,0,1.8,6.21,6.64,6.64,0,0,0,5.31,2.19,6.24,6.24,0,0,0,4.18-1.2,5.35,5.35,0,0,0,1.79-3h9.78A9.62,9.62,0,0,1,225.15,240.94Zm-19.82-18.76a7.09,7.09,0,0,0-1.87,4.75H216.6a7.14,7.14,0,0,0-1.87-4.75,6.66,6.66,0,0,0-9.4,0Z"></path><path class="cls-1" d="M279.84,216.82q3,3,3,8.94v21.39H273v-19c0-2.32-.44-4-1.3-5a4.72,4.72,0,0,0-3.8-1.52,5.11,5.11,0,0,0-4.11,2,9,9,0,0,0-1.65,5.85v17.64h-9.78v-19q0-3.48-1.31-5a4.7,4.7,0,0,0-3.79-1.52,5.11,5.11,0,0,0-4.11,2,9,9,0,0,0-1.65,5.85v17.64h-9.84V214.6h9.39V219h.27a12.33,12.33,0,0,1,15.66-3.8,9,9,0,0,1,3.81,4.1,17.94,17.94,0,0,1,4.77-4,12.78,12.78,0,0,1,6.36-1.45A10.67,10.67,0,0,1,279.84,216.82Z"></path><path class="cls-1" d="M319.74,240.94a11.91,11.91,0,0,1-2.75,3.45,13.24,13.24,0,0,1-4.93,2.6,24,24,0,0,1-7.14,1q-7.95,0-12.48-4.57t-4.53-12.47q0-8,4.42-12.56t12.29-4.57q7.68,0,12.16,4.47T321.27,231q0,1.26-.06,1.86H297.93a8.9,8.9,0,0,0,1.8,6.21A6.64,6.64,0,0,0,305,241.3a6.26,6.26,0,0,0,4.18-1.2,5.35,5.35,0,0,0,1.79-3h9.78A9.62,9.62,0,0,1,319.74,240.94Zm-19.82-18.76a7.09,7.09,0,0,0-1.87,4.75h13.14a7.1,7.1,0,0,0-1.88-4.75,6.65,6.65,0,0,0-9.39,0Z"></path><path class="cls-1" d="M336.12,237.43v9.72h-9.84V202.66h9.84v24.27l11-12.33h10.95l-11.85,12.51,13.2,20H348.21l-8.61-13.47Z"></path><path class="cls-1" d="M396.36,239.83v7.32a19.88,19.88,0,0,1-6.27.81q-5.4,0-7.71-1.86t-2.31-6.81V220.93h-5V214.6h5v-9h9.84v9h6.63v6.33h-6.63v16.2a3.14,3.14,0,0,0,.75,2.46,4,4,0,0,0,2.55.63A11,11,0,0,0,396.36,239.83Z"></path><path class="cls-1" d="M435.21,239.53v7.38a15.26,15.26,0,0,1-4.8.6,10,10,0,0,1-4.57-.94,5.08,5.08,0,0,1-2.54-2.75h-.24Q419.88,248,412.29,248a11.79,11.79,0,0,1-7.79-2.65,8.89,8.89,0,0,1-3.19-7.19,11.91,11.91,0,0,1,.78-4.5,7.53,7.53,0,0,1,2.25-3.1,11.59,11.59,0,0,1,3.24-1.85,19.66,19.66,0,0,1,4.11-1l6.21-.87a8,8,0,0,0,3.39-1.09,2.64,2.64,0,0,0,1.08-2.3,2.51,2.51,0,0,0-1.27-2.18,6.3,6.3,0,0,0-3.41-.82,6.92,6.92,0,0,0-4,1,4,4,0,0,0-1.68,3.15h-9.21a10.08,10.08,0,0,1,1.17-5,8.91,8.91,0,0,1,3.27-3.38,16.06,16.06,0,0,1,4.74-1.86,26.28,26.28,0,0,1,5.82-.6q6.63,0,10.47,2.45a8.16,8.16,0,0,1,3.84,7.39v14.49q0,1.71,1.35,1.71A5.61,5.61,0,0,0,435.21,239.53Zm-12.84-8a9.21,9.21,0,0,1-3.57,1.11l-2.88.54q-4.62.81-4.62,4.56a3.72,3.72,0,0,0,1.09,2.88,4.32,4.32,0,0,0,3,1,7.36,7.36,0,0,0,2.34-.39A8.34,8.34,0,0,0,420,240a5.47,5.47,0,0,0,1.74-2.2,7.69,7.69,0,0,0,.66-3.26Z"></path><path class="cls-1" d="M449.64,214.6v5h.27q2.76-5.82,9.87-5.82a8.13,8.13,0,0,1,2,.24v9.78a17.9,17.9,0,0,0-2.82-.24,11.75,11.75,0,0,0-3.35.45,8.74,8.74,0,0,0-2.79,1.41,6.29,6.29,0,0,0-2,2.7,10.62,10.62,0,0,0-.72,4.08v14.94h-9.84V214.6Z"></path><path class="cls-1" d="M466.77,202.66h9.84v7.68h-9.84Zm0,11.94h9.84v32.55h-9.84Z"></path><path class="cls-1" d="M497.49,209.74a3.12,3.12,0,0,0-1,2.64v2.22h6.63v6.33H496.5v26.22h-9.84V220.93h-5V214.6h5v-3.45a11.49,11.49,0,0,1,.58-3.84,7.25,7.25,0,0,1,1.58-2.67,7.36,7.36,0,0,1,2.52-1.65,13.31,13.31,0,0,1,3.22-.87,30.28,30.28,0,0,1,9.5.3v6.87a20,20,0,0,0-3.57-.3A5,5,0,0,0,497.49,209.74Z"></path><path class="cls-1" d="M508.14,202.66H518v44.49h-9.84Z"></path><path class="cls-1" d="M554.82,240.94a11.91,11.91,0,0,1-2.75,3.45,13.24,13.24,0,0,1-4.93,2.6,24,24,0,0,1-7.14,1q-7.95,0-12.48-4.57T523,230.92q0-8,4.42-12.56t12.29-4.57q7.68,0,12.16,4.47T556.35,231q0,1.26-.06,1.86H533a8.9,8.9,0,0,0,1.8,6.21,6.64,6.64,0,0,0,5.31,2.19,6.26,6.26,0,0,0,4.18-1.2,5.35,5.35,0,0,0,1.79-3h9.78A9.62,9.62,0,0,1,554.82,240.94ZM535,222.18a7.09,7.09,0,0,0-1.87,4.75h13.14a7.1,7.1,0,0,0-1.88-4.75,6.65,6.65,0,0,0-9.39,0Z"></path><path class="cls-1" d="M570.75,214.6v5H571q2.76-5.82,9.87-5.82a8.13,8.13,0,0,1,2,.24v9.78a17.9,17.9,0,0,0-2.82-.24,11.75,11.75,0,0,0-3.35.45,8.74,8.74,0,0,0-2.79,1.41,6.29,6.29,0,0,0-2,2.7,10.62,10.62,0,0,0-.72,4.08v14.94h-9.84V214.6Z"></path><path class="cls-1" d="M587.88,202.66h9.84v7.68h-9.84Zm0,11.94h9.84v32.55h-9.84Z"></path><path class="cls-2" d="M454.31,187.16V118.31a34.53,34.53,0,0,1,34.52-34.52h0V187.16Z"></path><path class="cls-2" d="M189,83.79v14h.76q11.79-16.45,33.19-16.45,16.46,0,26.29,9.6t9.85,28.63v67.61H224.44V127.54q0-10-4-14.46t-11.8-4.47a17,17,0,0,0-13.12,5.75q-5.24,5.76-5.23,17v55.82H155.78V83.79Z"></path><path class="cls-2" d="M375.46,155a30.91,30.91,0,0,1-2.23,10,33,33,0,0,1-6,9.37,38.64,38.64,0,0,1-9.89,7.89,53.75,53.75,0,0,1-14.55,5.33,86.82,86.82,0,0,1-19.36,2q-26.15,0-40.7-14.31t-14.55-39.7q0-25.49,14.32-39.89t40.17-14.41q25.31,0,39.9,14.12t14.59,40.94q0,4-.18,6.09H303.66q-.37,12.17,5,18.44t15.17,6.28q14.64,0,17.21-12.17Zm-39.37-46.55q-5-5.48-13.41-5.47t-13.4,5.47A20.79,20.79,0,0,0,304,122.4h37.47A20.84,20.84,0,0,0,336.09,108.47Z"></path><path class="cls-2" d="M439.76,67.91q-6.37,0-9.51,2.47t-3.14,8v5.42h20.54v21.68H427.11v81.69H392.49V105.47H376.71V83.79h15.78V74a35.93,35.93,0,0,1,2.05-12.75A23.5,23.5,0,0,1,400,52.5a24.88,24.88,0,0,1,8.75-5.32,50.21,50.21,0,0,1,11-2.76A100.62,100.62,0,0,1,433,43.66a167.37,167.37,0,0,1,17.69,1.24V68.48C446.51,68.1,442.86,67.91,439.76,67.91Z"></path><path class="cls-2" d="M562.26,115.27a12.31,12.31,0,0,0-4.85-9.56q-4.47-3.37-11.79-3.38a18,18,0,0,0-9.8,2.48,7.56,7.56,0,0,0-3.9,6.65,6.31,6.31,0,0,0,3.28,5.71q3.28,2,9.94,3.14l17.88,3a85,85,0,0,1,14,3.13,40.55,40.55,0,0,1,10.65,5.42,21.6,21.6,0,0,1,7.42,9.37,36.66,36.66,0,0,1,2.47,14.22q0,34.23-51.26,34.23a99.61,99.61,0,0,1-20.87-2,53.72,53.72,0,0,1-16.36-6.23A28.88,28.88,0,0,1,498.16,170a35.1,35.1,0,0,1-3.8-16.73h33.38q.85,15.21,18.83,15.21,7,0,11.36-2.71a8.25,8.25,0,0,0,4.33-7.27,7.63,7.63,0,0,0-3.57-6.75q-3.57-2.39-10.6-3.62L530,145a72.22,72.22,0,0,1-12-3,44.49,44.49,0,0,1-10.18-5.23,22.31,22.31,0,0,1-7.65-9,30.57,30.57,0,0,1-2.71-13.36,29.93,29.93,0,0,1,2.61-12.69,27,27,0,0,1,7-9.42A39.63,39.63,0,0,1,517.7,86a58.77,58.77,0,0,1,13-3.61,92.08,92.08,0,0,1,14.55-1.09,97.68,97.68,0,0,1,15.4,1.14,61.52,61.52,0,0,1,13.46,3.71,38.62,38.62,0,0,1,10.79,6.42,27.71,27.71,0,0,1,7.13,9.65,31.78,31.78,0,0,1,2.76,13Z"></path><circle class="cls-2" cx="472.82" cy="58.37" r="16.02"></circle><path class="cls-1" d="M124.73,152.76c4.64,26.54-7,54.1-28.85,69.41a.26.26,0,0,1-.38-.32c18.81-46.11-19.75-80-42.62-115.16,19.15,45.54,49.51,112.44.46,152a.26.26,0,0,1-.42-.25c10-55.41-91.4-106.47-32.25-154.39a.26.26,0,0,1,.41.28c-10.79,32.23,22.23,56.38,39.38,78.56-.69-39.1-26-55.64-29.24-90.23-2.86-30.26,4.64-60,40.28-91a.25.25,0,0,1,.42.24C60.54,55.05,115.15,104.17,124.73,152.76Z"></path>
					</svg>